<mxfile host="app.diagrams.net" modified="2023-06-21T10:44:13.781Z" agent="Mozilla/5.0 (Windows NT 10.0; Win64; x64) AppleWebKit/537.36 (KHTML, like Gecko) Chrome/114.0.0.0 Safari/537.36" etag="aq-53Fb2BSlz2z7Y68-i" version="21.5.0" type="github">
  <diagram name="Страница 1" id="AzADRY1ogufCtkanLcJf">
    <mxGraphModel dx="1579" dy="2239" grid="1" gridSize="1" guides="1" tooltips="1" connect="1" arrows="1" fold="1" page="1" pageScale="1" pageWidth="827" pageHeight="1169" math="0" shadow="0">
      <root>
        <mxCell id="0" />
        <mxCell id="1" parent="0" />
        <mxCell id="sJJvbcnyhf13Xg15UqRg-31" value="&lt;p style=&quot;margin:0px;margin-top:4px;text-align:center;&quot;&gt;&lt;b&gt;Player&lt;/b&gt;&lt;br&gt;&lt;/p&gt;&lt;hr size=&quot;1&quot;&gt;&lt;p style=&quot;margin:0px;margin-left:4px;&quot;&gt;- name : string&lt;br&gt;&lt;/p&gt;&lt;p style=&quot;margin:0px;margin-left:4px;&quot;&gt;- piece : char&lt;br&gt;&lt;/p&gt;&lt;p style=&quot;margin:0px;margin-left:4px;&quot;&gt;- balance : int&lt;br&gt;&lt;/p&gt;&lt;p style=&quot;margin:0px;margin-left:4px;&quot;&gt;- position : int&lt;br&gt;&lt;/p&gt;&lt;p style=&quot;margin:0px;margin-left:4px;&quot;&gt;- housesCount : int&lt;br&gt;&lt;/p&gt;&lt;p style=&quot;margin:0px;margin-left:4px;&quot;&gt;- hotelsCount : int&lt;br&gt;&lt;/p&gt;&lt;p style=&quot;margin:0px;margin-left:4px;&quot;&gt;- yellow : int&lt;br&gt;&lt;/p&gt;&lt;p style=&quot;margin:0px;margin-left:4px;&quot;&gt;- darkYellow : int&lt;br&gt;&lt;/p&gt;&lt;p style=&quot;margin:0px;margin-left:4px;&quot;&gt;- green : int&lt;br&gt;&lt;/p&gt;&lt;p style=&quot;margin:0px;margin-left:4px;&quot;&gt;- darkGreen : int&lt;br&gt;&lt;/p&gt;&lt;p style=&quot;margin:0px;margin-left:4px;&quot;&gt;- red : int&lt;br&gt;&lt;/p&gt;&lt;p style=&quot;margin:0px;margin-left:4px;&quot;&gt;- magenta : int&lt;br&gt;&lt;/p&gt;&lt;p style=&quot;margin:0px;margin-left:4px;&quot;&gt;- blue : int&lt;br&gt;&lt;/p&gt;&lt;p style=&quot;margin:0px;margin-left:4px;&quot;&gt;- cyan : int&lt;br&gt;&lt;/p&gt;&lt;p style=&quot;margin:0px;margin-left:4px;&quot;&gt;- gray : int&lt;br&gt;&lt;/p&gt;&lt;p style=&quot;margin:0px;margin-left:4px;&quot;&gt;- black : int&lt;br&gt;&lt;/p&gt;&lt;p style=&quot;margin:0px;margin-left:4px;&quot;&gt;- escapeAttempts : int&lt;br&gt;&lt;/p&gt;&lt;p style=&quot;margin:0px;margin-left:4px;&quot;&gt;- liberation : int&lt;br&gt;&lt;/p&gt;&lt;p style=&quot;margin:0px;margin-left:4px;&quot;&gt;- place : int&lt;br&gt;&lt;/p&gt;&lt;p style=&quot;margin:0px;margin-left:4px;&quot;&gt;- cancelled : bool&lt;br&gt;&lt;/p&gt;&lt;p style=&quot;margin:0px;margin-left:4px;&quot;&gt;- didBid : bool&lt;br&gt;&lt;/p&gt;&lt;p style=&quot;margin:0px;margin-left:4px;&quot;&gt;- isPrisoned : bool&lt;br&gt;&lt;/p&gt;&lt;p style=&quot;margin:0px;margin-left:4px;&quot;&gt;- isBankrupt : bool&lt;br&gt;&lt;/p&gt;&lt;p style=&quot;margin:0px;margin-left:4px;&quot;&gt;- property : List&amp;lt;Quartal&amp;gt;&lt;br&gt;&lt;/p&gt;&lt;hr size=&quot;1&quot;&gt;&lt;p style=&quot;margin:0px;margin-left:4px;&quot;&gt;+ Player(_name:string, _piece:char)&lt;/p&gt;&lt;p style=&quot;margin:0px;margin-left:4px;&quot;&gt;+ reset()&lt;/p&gt;&lt;p style=&quot;margin:0px;margin-left:4px;&quot;&gt;+ increasePlace()&lt;/p&gt;&lt;p style=&quot;margin:0px;margin-left:4px;&quot;&gt;+ increaseColor(quartal:Quartal)&lt;/p&gt;&lt;p style=&quot;margin:0px;margin-left:4px;&quot;&gt;+ decreaseColor(quartal:Quartal)&lt;br&gt;&lt;/p&gt;&lt;p style=&quot;margin:0px;margin-left:4px;&quot;&gt;+ bankrupt(player:Player) : List&amp;lt;Quartal&amp;gt;&lt;/p&gt;&lt;p style=&quot;margin:0px;margin-left:4px;&quot;&gt;+ getLiberation()&lt;/p&gt;&lt;p style=&quot;margin:0px;margin-left:4px;&quot;&gt;+ spendLiberation()&lt;/p&gt;&lt;p style=&quot;margin:0px;margin-left:4px;&quot;&gt;+ arrest()&lt;/p&gt;&lt;p style=&quot;margin:0px;margin-left:4px;&quot;&gt;+ leavePrison()&lt;/p&gt;&lt;p style=&quot;margin:0px;margin-left:4px;&quot;&gt;+ doEscapeAttempt()&lt;/p&gt;&lt;p style=&quot;margin:0px;margin-left:4px;&quot;&gt;+ addProperty(quartal:Quartal)&lt;/p&gt;&lt;p style=&quot;margin:0px;margin-left:4px;&quot;&gt;+ removeProperty(quartal:Quartal)&lt;/p&gt;&lt;p style=&quot;margin:0px;margin-left:4px;&quot;&gt;+ pay(amount:int)&lt;/p&gt;&lt;p style=&quot;margin:0px;margin-left:4px;&quot;&gt;+ receive(amount:int)&lt;/p&gt;&lt;p style=&quot;margin:0px;margin-left:4px;&quot;&gt;+ doBid()&lt;/p&gt;&lt;p style=&quot;margin:0px;margin-left:4px;&quot;&gt;+ cancelAuction()&lt;/p&gt;&lt;p style=&quot;margin:0px;margin-left:4px;&quot;&gt;+ endAuction()&lt;/p&gt;&lt;p style=&quot;margin:0px;margin-left:4px;&quot;&gt;+ addHouses(amount:int)&lt;/p&gt;&lt;p style=&quot;margin:0px;margin-left:4px;&quot;&gt;+ reduceHouses(amount:int)&lt;/p&gt;&lt;p style=&quot;margin:0px;margin-left:4px;&quot;&gt;+ increaseHotels()&lt;/p&gt;&lt;p style=&quot;margin:0px;margin-left:4px;&quot;&gt;+ decreaseHotels()&lt;/p&gt;&lt;p style=&quot;margin:0px;margin-left:4px;&quot;&gt;+ move(newPosition:int)&lt;/p&gt;" style="verticalAlign=top;align=left;overflow=fill;fontSize=12;fontFamily=Helvetica;html=1;whiteSpace=wrap;" vertex="1" parent="1">
          <mxGeometry x="699" y="-59" width="230" height="727" as="geometry" />
        </mxCell>
        <mxCell id="sJJvbcnyhf13Xg15UqRg-32" value="&lt;p style=&quot;margin:0px;margin-top:4px;text-align:center;&quot;&gt;&lt;b&gt;Quartal&lt;/b&gt;&lt;/p&gt;&lt;hr size=&quot;1&quot;&gt;&lt;p style=&quot;margin:0px;margin-left:4px;&quot;&gt;- name : string&lt;/p&gt;&lt;p style=&quot;margin:0px;margin-left:4px;&quot;&gt;- color : ConsoleColor&lt;/p&gt;&lt;p style=&quot;margin:0px;margin-left:4px;&quot;&gt;- owner : Player&lt;/p&gt;&lt;p style=&quot;margin:0px;margin-left:4px;&quot;&gt;- visitors : int&lt;/p&gt;&lt;p style=&quot;margin:0px;margin-left:4px;&quot;&gt;- special : int&lt;/p&gt;&lt;p style=&quot;margin:0px;margin-left:4px;&quot;&gt;- cost : int&lt;/p&gt;&lt;p style=&quot;margin:0px;margin-left:4px;&quot;&gt;- noMonopolyRent : int&lt;/p&gt;&lt;p style=&quot;margin:0px;margin-left:4px;&quot;&gt;- monopolyRent : int&lt;/p&gt;&lt;p style=&quot;margin:0px;margin-left:4px;&quot;&gt;- house1Rent : int&lt;/p&gt;&lt;p style=&quot;margin:0px;margin-left:4px;&quot;&gt;- house2Rent : int&lt;br&gt;&lt;/p&gt;&amp;nbsp;- house3Rent : int&lt;br&gt;&amp;nbsp;- house4Rent : int&lt;br&gt;&lt;p style=&quot;margin:0px;margin-left:4px;&quot;&gt;- hotelRent : int&lt;br&gt;&lt;/p&gt;&lt;p style=&quot;margin:0px;margin-left:4px;&quot;&gt;- houseCost : int&lt;/p&gt;&lt;p style=&quot;margin:0px;margin-left:4px;&quot;&gt;- level : int&lt;/p&gt;&lt;p style=&quot;margin:0px;margin-left:4px;&quot;&gt;- pledge : int&lt;/p&gt;&lt;p style=&quot;margin:0px;margin-left:4px;&quot;&gt;- colorGroup : List&amp;lt;Quartal&amp;gt;&lt;/p&gt;&lt;p style=&quot;margin:0px;margin-left:4px;&quot;&gt;- isMantaged : bool&lt;/p&gt;&lt;p style=&quot;margin:0px;margin-left:4px;&quot;&gt;- isMonopoly : bool?&lt;/p&gt;&lt;hr size=&quot;1&quot;&gt;&lt;p style=&quot;margin:0px;margin-left:4px;&quot;&gt;+ Quartal(_name:string, _color:ConsoleColor, _cost:int, _noMonopolyRent:int, _monopolyRent:int, _house1Rent:int, _house2Rent:int, _house3Rent:int, _house4Rent:int, _hotelRent:int, _houseCost:int, _pledge:int)&lt;/p&gt;&lt;p style=&quot;margin:0px;margin-left:4px;&quot;&gt;+ Quartal(_name:string, isBlack:bool)&lt;/p&gt;&lt;p style=&quot;margin:0px;margin-left:4px;&quot;&gt;+ Quartal(_special:int)&lt;/p&gt;&lt;p style=&quot;margin:0px;margin-left:4px;&quot;&gt;+ reset()&lt;/p&gt;&lt;p style=&quot;margin:0px;margin-left:4px;&quot;&gt;+ initStart(playersCount:int)&lt;/p&gt;&lt;p style=&quot;margin:0px;margin-left:4px;&quot;&gt;+ addToGroup(quartal:Quartal)&lt;/p&gt;&lt;p style=&quot;margin:0px;margin-left:4px;&quot;&gt;+ setOwner(player:Player)&lt;/p&gt;&lt;p style=&quot;margin:0px;margin-left:4px;&quot;&gt;+ setOwner(player:Player, bid:int)&lt;/p&gt;&lt;p style=&quot;margin:0px;margin-left:4px;&quot;&gt;+ mantage()&lt;/p&gt;&lt;p style=&quot;margin:0px;margin-left:4px;&quot;&gt;+ redeem()&lt;/p&gt;&lt;p style=&quot;margin:0px;margin-left:4px;&quot;&gt;+ downgrade()&lt;/p&gt;&lt;p style=&quot;margin:0px;margin-left:4px;&quot;&gt;+ upgrade()&lt;/p&gt;&lt;p style=&quot;margin:0px;margin-left:4px;&quot;&gt;+ increaseVisitors()&lt;/p&gt;&lt;p style=&quot;margin:0px;margin-left:4px;&quot;&gt;+ decreaseVisitors&lt;/p&gt;" style="verticalAlign=top;align=left;overflow=fill;fontSize=12;fontFamily=Helvetica;html=1;whiteSpace=wrap;" vertex="1" parent="1">
          <mxGeometry x="674" y="950" width="1143" height="529" as="geometry" />
        </mxCell>
        <mxCell id="sJJvbcnyhf13Xg15UqRg-33" value="&lt;p style=&quot;margin:0px;margin-top:4px;text-align:center;&quot;&gt;&lt;b&gt;Monopoly&lt;/b&gt;&lt;/p&gt;&lt;hr size=&quot;1&quot;&gt;&lt;p style=&quot;margin:0px;margin-left:4px;&quot;&gt;- Main()&lt;br&gt;&lt;/p&gt;&lt;p style=&quot;margin:0px;margin-left:4px;&quot;&gt;- &lt;u&gt;playersCount&amp;nbsp;&lt;/u&gt;: int&lt;/p&gt;&lt;p style=&quot;margin:0px;margin-left:4px;&quot;&gt;- &lt;u&gt;remaining&lt;/u&gt;&amp;nbsp;: int&lt;/p&gt;&lt;p style=&quot;margin:0px;margin-left:4px;&quot;&gt;- &lt;u&gt;sleep&lt;/u&gt; : int&lt;/p&gt;&lt;p style=&quot;margin:0px;margin-left:4px;&quot;&gt;- &lt;u&gt;dice1&lt;/u&gt; : int&lt;/p&gt;&lt;p style=&quot;margin:0px;margin-left:4px;&quot;&gt;- &lt;u&gt;dice2&lt;/u&gt; : int&lt;/p&gt;&lt;p style=&quot;margin:0px;margin-left:4px;&quot;&gt;- &lt;u&gt;doubles&lt;/u&gt; : int&lt;/p&gt;&lt;p style=&quot;margin:0px;margin-left:4px;&quot;&gt;- &lt;u&gt;treasuries&lt;/u&gt; : List&amp;lt;int&amp;gt;&lt;/p&gt;&lt;p style=&quot;margin:0px;margin-left:4px;&quot;&gt;- &lt;u&gt;chances&lt;/u&gt; : List&amp;lt;int&amp;gt;&lt;/p&gt;&lt;p style=&quot;margin:0px;margin-left:4px;&quot;&gt;- &lt;u&gt;musicMuted&lt;/u&gt; : bool&lt;/p&gt;&lt;p style=&quot;margin:0px;margin-left:4px;&quot;&gt;- &lt;u&gt;repeat&lt;/u&gt; : bool&lt;/p&gt;&lt;p style=&quot;margin:0px;margin-left:4px;&quot;&gt;- &lt;u&gt;menuPlayer&lt;/u&gt;&amp;nbsp;: MediaPlayer&lt;/p&gt;&lt;p style=&quot;margin:0px;margin-left:4px;&quot;&gt;- &lt;u&gt;musicPlayer&lt;/u&gt; : MediaPlayer&lt;br&gt;&lt;/p&gt;&lt;p style=&quot;margin:0px;margin-left:4px;&quot;&gt;- &lt;u&gt;victoryPlayer&lt;/u&gt; : MediaPlayer&lt;br&gt;&lt;/p&gt;&lt;p style=&quot;margin:0px;margin-left:4px;&quot;&gt;- &lt;u&gt;moneyPlayer&lt;/u&gt; : MediaPlayer&lt;br&gt;&lt;/p&gt;&lt;p style=&quot;margin:0px;margin-left:4px;&quot;&gt;- &lt;u&gt;policePlayer&lt;/u&gt; : MediaPlayer&lt;br&gt;&lt;/p&gt;&lt;p style=&quot;margin:0px;margin-left:4px;&quot;&gt;- &lt;u&gt;paperPlayer&lt;/u&gt; : MediaPlayer&lt;br&gt;&lt;/p&gt;&lt;p style=&quot;margin:0px;margin-left:4px;&quot;&gt;- &lt;u&gt;happyPlayer&lt;/u&gt; : MediaPlayer&lt;br&gt;&lt;/p&gt;&lt;p style=&quot;margin:0px;margin-left:4px;&quot;&gt;- &lt;u&gt;sadPlayer&lt;/u&gt; : MediaPlayer&lt;br&gt;&lt;/p&gt;&lt;p style=&quot;margin:0px;margin-left:4px;&quot;&gt;- &lt;u&gt;upgradePlayer&lt;/u&gt; : MediaPlayer&lt;br&gt;&lt;/p&gt;&lt;p style=&quot;margin:0px;margin-left:4px;&quot;&gt;- &lt;u&gt;downgradePlayer&lt;/u&gt; : MediaPlayer&lt;br&gt;&lt;/p&gt;&lt;p style=&quot;margin:0px;margin-left:4px;&quot;&gt;- &lt;u&gt;padlockPlayer&lt;/u&gt; : MediaPlayer&lt;br&gt;&lt;/p&gt;&lt;p style=&quot;margin:0px;margin-left:4px;&quot;&gt;- &lt;u&gt;chainPlayer&lt;/u&gt; : MediaPlayer&lt;br&gt;&lt;/p&gt;&lt;p style=&quot;margin:0px;margin-left:4px;&quot;&gt;- &lt;u&gt;cancelPlayer&lt;/u&gt; : MediaPlayer&lt;br&gt;&lt;/p&gt;&lt;p style=&quot;margin:0px;margin-left:4px;&quot;&gt;- &lt;u&gt;turnPlayer&lt;/u&gt; : MediaPlayer&lt;br&gt;&lt;/p&gt;&lt;p style=&quot;margin:0px;margin-left:4px;&quot;&gt;- &lt;u&gt;successPlayer&lt;/u&gt; : MediaPlayer&lt;br&gt;&lt;/p&gt;&lt;p style=&quot;margin:0px;margin-left:4px;&quot;&gt;- &lt;u&gt;players&lt;/u&gt; : Players[]&lt;/p&gt;&lt;p style=&quot;margin:0px;margin-left:4px;&quot;&gt;- &lt;u&gt;quartals&lt;/u&gt; : Quartal[]&lt;/p&gt;&lt;hr size=&quot;1&quot;&gt;&lt;p style=&quot;margin:0px;margin-left:4px;&quot;&gt;- &lt;u&gt;printDices&lt;/u&gt;(dice1:int, dice2:int)&lt;/p&gt;&lt;p style=&quot;margin:0px;margin-left:4px;&quot;&gt;- &lt;u&gt;printDices&lt;/u&gt;(dice1:int, dice2:int, doubles:bool)&lt;/p&gt;&lt;p style=&quot;margin:0px;margin-left:4px;&quot;&gt;- &lt;u&gt;printRoadmap&lt;/u&gt;()&lt;/p&gt;&lt;p style=&quot;margin:0px;margin-left:4px;&quot;&gt;- &lt;u&gt;printPlayers&lt;/u&gt;(turn:int)&lt;/p&gt;&lt;p style=&quot;margin:0px;margin-left:4px;&quot;&gt;- &lt;u&gt;printPieces&lt;/u&gt;(oldPosition:int, newPosition:int, player:Player)&lt;/p&gt;&lt;p style=&quot;margin:0px;margin-left:4px;&quot;&gt;- &lt;u&gt;printTraders&lt;/u&gt;(marker:int, traders:Player[])&lt;/p&gt;&lt;p style=&quot;margin:0px;margin-left:4px;&quot;&gt;- &lt;u&gt;printProperty&lt;/u&gt;(player:Player, trader:Player, playerProperty:List&amp;lt;Quartal&amp;gt;, traderProperty:List&amp;lt;Quartal&amp;gt;, playerMoney:int, traderMoney:int, marker1:int, marker2:int, ownProperty:bool, category:bool?, playerLiberationCount:int, traderLiberationCount:int)&lt;/p&gt;&lt;p style=&quot;margin:0px;margin-left:4px;&quot;&gt;- &lt;u&gt;printQuartalLevel&lt;/u&gt;(quartal:Quartal, position:int)&lt;/p&gt;&lt;p style=&quot;margin:0px;margin-left:4px;&quot;&gt;- &lt;u&gt;printOwner&lt;/u&gt;(quartal:Quartal)&lt;/p&gt;&lt;p style=&quot;margin:0px;margin-left:4px;&quot;&gt;- &lt;u&gt;redeem&lt;/u&gt;(quartal:Quartal, turn:int)&lt;/p&gt;&lt;p style=&quot;margin:0px;margin-left:4px;&quot;&gt;- &lt;u&gt;trade&lt;/u&gt;(player:Player)&lt;/p&gt;&lt;p style=&quot;margin:0px;margin-left:4px;&quot;&gt;- &lt;u&gt;printCard&lt;/u&gt;(quartal:Quartal)&lt;/p&gt;&lt;p style=&quot;margin:0px;margin-left:4px;&quot;&gt;- &lt;u&gt;printCard&lt;/u&gt;(quartal:Quartal, column:int, row:int)&lt;/p&gt;&lt;p style=&quot;margin:0px;margin-left:4px;&quot;&gt;- &lt;u&gt;printTitle&lt;/u&gt;()&lt;/p&gt;&lt;p style=&quot;margin:0px;margin-left:4px;&quot;&gt;- &lt;u&gt;clearMenu&lt;/u&gt;()&lt;/p&gt;&lt;p style=&quot;margin:0px;margin-left:4px;&quot;&gt;- &lt;u&gt;printRealty&lt;/u&gt;(player:Player)&lt;/p&gt;&lt;p style=&quot;margin:0px;margin-left:4px;&quot;&gt;- &lt;u&gt;rent&lt;/u&gt;(quartal:Quartal, dicePoints:int) : int&lt;/p&gt;&lt;p style=&quot;margin:0px;margin-left:4px;&quot;&gt;- &lt;u&gt;buyOrAuctionOrRent&lt;/u&gt;(player:Player, quartal:Quartal, turn:int)&lt;/p&gt;&lt;p style=&quot;margin:0px;margin-left:4px;&quot;&gt;- &lt;u&gt;throwDices&lt;/u&gt;(player:Player, turn:int) : bool&lt;/p&gt;&lt;p style=&quot;margin:0px;margin-left:4px;&quot;&gt;- &lt;u&gt;printMenu&lt;/u&gt;(header:string, payment:int, player:Player)&lt;/p&gt;&lt;p style=&quot;margin:0px;margin-left:4px;&quot;&gt;- &lt;u&gt;menu&lt;/u&gt;(player:Player, turn:int, skip:bool, header:string)&lt;/p&gt;&lt;p style=&quot;margin:0px;margin-left:4px;&quot;&gt;- &lt;u&gt;purchase&lt;/u&gt;(player:Player, quartal:Quartal)&lt;/p&gt;&lt;p style=&quot;margin:0px;margin-left:4px;&quot;&gt;- &lt;u&gt;auction&lt;/u&gt;(quartal:Quartal, turn:int)&lt;/p&gt;&lt;p style=&quot;margin:0px;margin-left:4px;&quot;&gt;- &lt;u&gt;spendLiberation&lt;/u&gt;(player:Player)&lt;/p&gt;&lt;p style=&quot;margin:0px;margin-left:4px;&quot;&gt;- &lt;u&gt;bankrupt&lt;/u&gt;(debtor:Player, player:Player)&lt;/p&gt;&lt;p style=&quot;margin:0px;margin-left:4px;&quot;&gt;- &lt;u&gt;treasury&lt;/u&gt;(player:Player, turn:int) : Quartal&lt;/p&gt;&lt;p style=&quot;margin:0px;margin-left:4px;&quot;&gt;- &lt;u&gt;chance&lt;/u&gt;(playerPlayer, turn:int) : Quartal&lt;/p&gt;&lt;p style=&quot;margin:0px;margin-left:4px;&quot;&gt;- &lt;u&gt;registration&lt;/u&gt;()&lt;/p&gt;&lt;p style=&quot;margin:0px;margin-left:4px;&quot;&gt;- &lt;u&gt;queueDefinition&lt;/u&gt;()&lt;/p&gt;&lt;p style=&quot;margin:0px;margin-left:4px;&quot;&gt;- &lt;u&gt;createDirectory&lt;/u&gt;() : string&lt;/p&gt;&lt;p style=&quot;margin:0px;margin-left:4px;&quot;&gt;- &lt;u&gt;soundInit&lt;/u&gt;(media:MediaPlayer, resource:byte[], path:string)&lt;/p&gt;&lt;p style=&quot;margin:0px;margin-left:4px;&quot;&gt;- &lt;u&gt;setCurrentFont&lt;/u&gt;(fontSize:short)&lt;/p&gt;&lt;p style=&quot;margin:0px;margin-left:4px;&quot;&gt;- &lt;u&gt;fontSetup&lt;/u&gt;()&lt;/p&gt;&lt;p style=&quot;margin:0px;margin-left:4px;&quot;&gt;- &lt;u&gt;victory&lt;/u&gt;() : bool&lt;/p&gt;&lt;p style=&quot;margin:0px;margin-left:4px;&quot;&gt;- &lt;u&gt;reset&lt;/u&gt;()&lt;/p&gt;" style="verticalAlign=top;align=left;overflow=fill;fontSize=12;fontFamily=Helvetica;html=1;whiteSpace=wrap;" vertex="1" parent="1">
          <mxGeometry x="1439" y="-174" width="1337" height="960" as="geometry" />
        </mxCell>
        <mxCell id="sJJvbcnyhf13Xg15UqRg-37" value="" style="endArrow=open;endFill=1;endSize=12;html=1;rounded=0;exitX=1;exitY=0.5;exitDx=0;exitDy=0;entryX=0;entryY=0.5;entryDx=0;entryDy=0;" edge="1" parent="1" source="sJJvbcnyhf13Xg15UqRg-31" target="sJJvbcnyhf13Xg15UqRg-33">
          <mxGeometry width="160" relative="1" as="geometry">
            <mxPoint x="1115" y="417" as="sourcePoint" />
            <mxPoint x="1408" y="465" as="targetPoint" />
          </mxGeometry>
        </mxCell>
        <mxCell id="sJJvbcnyhf13Xg15UqRg-38" value="+ играет в" style="edgeLabel;html=1;align=center;verticalAlign=middle;resizable=0;points=[];" vertex="1" connectable="0" parent="sJJvbcnyhf13Xg15UqRg-37">
          <mxGeometry x="-0.0532" y="-4" relative="1" as="geometry">
            <mxPoint x="5" y="-18" as="offset" />
          </mxGeometry>
        </mxCell>
        <mxCell id="sJJvbcnyhf13Xg15UqRg-43" value="&lt;font color=&quot;#2200ff&quot;&gt;3..8&lt;/font&gt;" style="edgeLabel;html=1;align=center;verticalAlign=middle;resizable=0;points=[];" vertex="1" connectable="0" parent="sJJvbcnyhf13Xg15UqRg-37">
          <mxGeometry x="-0.8704" y="-1" relative="1" as="geometry">
            <mxPoint x="-4" y="10" as="offset" />
          </mxGeometry>
        </mxCell>
        <mxCell id="sJJvbcnyhf13Xg15UqRg-44" value="0" style="edgeLabel;html=1;align=center;verticalAlign=middle;resizable=0;points=[];fontColor=#2200FF;" vertex="1" connectable="0" parent="sJJvbcnyhf13Xg15UqRg-37">
          <mxGeometry x="0.8344" relative="1" as="geometry">
            <mxPoint x="16" y="15" as="offset" />
          </mxGeometry>
        </mxCell>
        <mxCell id="sJJvbcnyhf13Xg15UqRg-39" value="" style="endArrow=diamondThin;endFill=0;endSize=24;html=1;rounded=0;exitX=0.5;exitY=0;exitDx=0;exitDy=0;entryX=0.75;entryY=1;entryDx=0;entryDy=0;" edge="1" parent="1" source="sJJvbcnyhf13Xg15UqRg-32" target="sJJvbcnyhf13Xg15UqRg-33">
          <mxGeometry width="160" relative="1" as="geometry">
            <mxPoint x="1191" y="837" as="sourcePoint" />
            <mxPoint x="1351" y="837" as="targetPoint" />
          </mxGeometry>
        </mxCell>
        <mxCell id="sJJvbcnyhf13Xg15UqRg-42" value="+ относится к" style="edgeLabel;html=1;align=center;verticalAlign=middle;resizable=0;points=[];" vertex="1" connectable="0" parent="sJJvbcnyhf13Xg15UqRg-39">
          <mxGeometry x="-0.1621" y="3" relative="1" as="geometry">
            <mxPoint x="68" y="-7" as="offset" />
          </mxGeometry>
        </mxCell>
        <mxCell id="sJJvbcnyhf13Xg15UqRg-45" value="0" style="edgeLabel;html=1;align=center;verticalAlign=middle;resizable=0;points=[];fontColor=#2200FF;" vertex="1" connectable="0" parent="sJJvbcnyhf13Xg15UqRg-39">
          <mxGeometry x="0.8443" y="3" relative="1" as="geometry">
            <mxPoint x="-30" y="-2" as="offset" />
          </mxGeometry>
        </mxCell>
        <mxCell id="sJJvbcnyhf13Xg15UqRg-46" value="40" style="edgeLabel;html=1;align=center;verticalAlign=middle;resizable=0;points=[];fontColor=#2200FF;" vertex="1" connectable="0" parent="sJJvbcnyhf13Xg15UqRg-39">
          <mxGeometry x="-0.8657" y="-1" relative="1" as="geometry">
            <mxPoint x="64" y="1" as="offset" />
          </mxGeometry>
        </mxCell>
        <mxCell id="sJJvbcnyhf13Xg15UqRg-40" value="" style="endArrow=open;endFill=1;endSize=12;html=1;rounded=0;exitX=0.5;exitY=1;exitDx=0;exitDy=0;entryX=0.5;entryY=0;entryDx=0;entryDy=0;" edge="1" parent="1" source="sJJvbcnyhf13Xg15UqRg-31" target="sJJvbcnyhf13Xg15UqRg-32">
          <mxGeometry width="160" relative="1" as="geometry">
            <mxPoint x="1021" y="762" as="sourcePoint" />
            <mxPoint x="1181" y="762" as="targetPoint" />
          </mxGeometry>
        </mxCell>
        <mxCell id="sJJvbcnyhf13Xg15UqRg-41" value="+ может владеть" style="edgeLabel;html=1;align=center;verticalAlign=middle;resizable=0;points=[];" vertex="1" connectable="0" parent="sJJvbcnyhf13Xg15UqRg-40">
          <mxGeometry x="-0.0933" y="1" relative="1" as="geometry">
            <mxPoint y="1" as="offset" />
          </mxGeometry>
        </mxCell>
        <mxCell id="sJJvbcnyhf13Xg15UqRg-47" value="&lt;font color=&quot;#2200ff&quot;&gt;0..1&lt;/font&gt;" style="edgeLabel;html=1;align=center;verticalAlign=middle;resizable=0;points=[];" vertex="1" connectable="0" parent="sJJvbcnyhf13Xg15UqRg-40">
          <mxGeometry x="-0.8636" y="1" relative="1" as="geometry">
            <mxPoint x="15" y="-4" as="offset" />
          </mxGeometry>
        </mxCell>
        <mxCell id="sJJvbcnyhf13Xg15UqRg-48" value="&lt;font color=&quot;#2200ff&quot;&gt;0..40&lt;/font&gt;" style="edgeLabel;html=1;align=center;verticalAlign=middle;resizable=0;points=[];" vertex="1" connectable="0" parent="sJJvbcnyhf13Xg15UqRg-40">
          <mxGeometry x="0.6197" y="-1" relative="1" as="geometry">
            <mxPoint x="19" y="30" as="offset" />
          </mxGeometry>
        </mxCell>
      </root>
    </mxGraphModel>
  </diagram>
</mxfile>
